# xmcd CD database file
#
# Track frame offsets:
#	150
#	14381
#	25303
#	41858
#	57964
#	74428
#	92378
#	105106
#	120889
#	136441
#	151708
#	168188
#	183109
#	201801
#	216232
#	232569
#	249776
#	263795
#	274456
#	286845
#	308711
#
# Disc length: 4320 seconds
#
# Revision: 2
# Processed by: cddbd v1.5.2PL0 Copyright (c) Steve Scherf et al.
# Submitted via: CDex 1.50Beta7
#
DISCID=0c10de15
DTITLE=Peter Tschernig - Mein bester Kumpel ...
DYEAR=2004
DGENRE=Country
TTITLE0=Mein bester Kumpel 
TTITLE1=Ein Freund, mein Freund 
TTITLE2=Zwischen Tür und Angel 
TTITLE3=Schlaf schön, Rosmarie
TTITLE4=Jeden vierten Sonntag 
TTITLE5=Bewahr' dir die Träume der Kindheit
TTITLE6=Gut dreißig Jahre bin ich alt 
TTITLE7=Nicht alles, was man glänzen sieht 
TTITLE8=Irgend ein Haken ist immer dabei  
TTITLE9=Du hast gewonnen 
TTITLE10=Immer, wenn ich lüge  
TTITLE11=Taxi - 408 
TTITLE12=In dem Land, in dem er jetzt wohnt 
TTITLE13=Wir beide 
TTITLE14=Zwischen Himmel und Erde
TTITLE15=Typen, so wie der 
TTITLE16=Wir sitzen alle im selben Boot 
TTITLE17=Country - Music 
TTITLE18=Ring of Fire 
TTITLE19=Was willst du denn da oben ohne mich 
TTITLE20=Alle 2 Sekunden 
EXTD=Hansa\r\nVÖ 22.3.2004 \r\n YEAR: 2004
EXTT0=
EXTT1=
EXTT2=
EXTT3=
EXTT4=
EXTT5=
EXTT6=
EXTT7=
EXTT8=
EXTT9=
EXTT10=
EXTT11=
EXTT12=
EXTT13=
EXTT14=
EXTT15=
EXTT16=
EXTT17=
EXTT18=
EXTT19=
EXTT20=
PLAYORDER=
